<svg width="18" height="18" viewBox="0 0 18 18" fill="none" xmlns="http://www.w3.org/2000/svg">
<path d="M15.9539 0.828672L15.9539 0.828695C16.3862 0.913942 16.7754 1.07474 17.0561 1.35752C17.3386 1.6298 17.5 1.97407 17.5 2.37089C17.5 2.87259 17.3562 3.34269 16.9682 3.65781C16.5963 3.97013 16.077 4.03704 15.5426 3.9962L15.5412 3.99609C14.4375 3.90864 13.5787 3.85289 12.9616 3.82824L12.9511 3.82782L12.9511 3.82771C12.434 3.7961 11.7704 3.77329 10.9586 3.75956C10.536 5.92246 10.146 8.09645 9.78855 10.2815C9.65433 11.1269 9.51372 12.1109 9.36674 13.2339L9.36665 13.2346C9.21984 14.3439 9.12297 15.2339 9.07481 15.9082C9.041 16.4035 8.82955 16.825 8.4313 17.1201L8.42516 17.1246L8.41889 17.129C8.05216 17.3837 7.62307 17.5 7.15668 17.5C6.67212 17.5 6.22277 17.3797 5.88097 17.0701C5.54492 16.7658 5.38479 16.3632 5.38479 15.9108C5.38479 15.5764 5.43153 15.0548 5.51768 14.3652L5.51861 14.3578L5.51867 14.3578C5.61749 13.6531 5.7286 12.9173 5.85197 12.1506L5.85322 12.1429L5.85328 12.1429C5.98758 11.3841 6.09073 10.7284 6.16321 10.1746L6.16393 10.1691L6.16396 10.1691C6.30007 9.21105 6.45475 8.25923 6.628 7.31364C6.80047 6.37239 6.97303 5.48073 7.14571 4.63873C7.18275 4.4501 7.2258 4.23709 7.27482 3.99984C7.28764 3.93454 7.30087 3.86757 7.31452 3.79893C6.42899 3.84751 5.72936 3.93587 5.20724 4.05935C4.55531 4.21353 4.17214 4.41634 3.97434 4.61786C3.79718 4.79834 3.69355 5.04116 3.69355 5.39437C3.69355 5.71779 3.78535 6.03283 3.98463 6.34752L3.99177 6.35879L3.9983 6.37043C4.08922 6.53252 4.13594 6.7106 4.13594 6.89671C4.13594 7.35701 3.85729 7.71275 3.51275 7.97219L3.50965 7.97452L3.50964 7.97451C3.16582 8.22926 2.78092 8.37324 2.36406 8.37324C2.05019 8.37324 1.75372 8.27645 1.51472 8.0583C1.19816 7.78219 0.95728 7.41167 0.777269 6.97436L0.775167 6.96925L0.775195 6.96924C0.588482 6.501 0.5 5.98606 0.5 5.43193C0.5 4.25213 0.879715 3.26162 1.67021 2.51471L15.9539 0.828672ZM15.9539 0.828672L15.9491 0.82778M15.9539 0.828672L15.9491 0.82778M15.9491 0.82778C15.3215 0.710343 14.5937 0.627047 13.7684 0.576082C12.9545 0.525069 11.8675 0.5 10.5115 0.5C8.30523 0.5 6.47254 0.651179 5.02418 0.961823L5.02329 0.962014M15.9491 0.82778L5.02329 0.962014M5.02329 0.962014C3.58691 1.27282 2.45001 1.77704 1.67027 2.51465L5.02329 0.962014Z" fill="url(#paint0_linear_24_5)" stroke="black"/>
<defs>
<linearGradient id="paint0_linear_24_5" x1="11.4916" y1="-7.35054" x2="11.4916" y2="22.3834" gradientUnits="userSpaceOnUse">
<stop/>
<stop offset="0.0001" stop-color="#D57CFF" stop-opacity="0.78125"/>
<stop offset="0.323057" stop-color="#E39BD4" stop-opacity="0.851904"/>
<stop offset="1" stop-color="#FFDA7A"/>
</linearGradient>
</defs>
</svg>
